<?xml version="1.0" encoding="UTF-8"?>
<svg id="Calque_1" xmlns="http://www.w3.org/2000/svg" version="1.1" viewBox="0 0 24 24">
  <!-- Generator: Adobe Illustrator 29.6.1, SVG Export Plug-In . SVG Version: 2.1.1 Build 9)  -->
  <defs>
    <style>
      .st0 {
        fill: #d9d9d9;
      }
    </style>
  </defs>
  <path class="st0" d="M12,21c-2.52,0-4.65-.39-6.39-1.16-1.74-.78-2.61-1.72-2.61-2.84V7c0-1.1.88-2.04,2.64-2.83,1.76-.78,3.88-1.18,6.36-1.18s4.6.39,6.36,1.18,2.64,1.73,2.64,2.83v10c0,1.12-.87,2.06-2.61,2.84s-3.87,1.16-6.39,1.16ZM12,9.02c1.48,0,2.98-.21,4.48-.64s2.34-.88,2.53-1.36c-.18-.48-1.02-.94-2.51-1.38s-2.99-.65-4.49-.65-3,.21-4.46.64c-1.46.43-2.3.89-2.54,1.39.23.5,1.08.96,2.54,1.38,1.46.42,2.95.63,4.46.63ZM12,14c.7,0,1.38-.03,2.03-.1s1.27-.16,1.86-.29,1.15-.28,1.68-.46,1-.39,1.44-.63v-3c-.43.23-.91.44-1.44.63s-1.08.34-1.68.46-1.21.22-1.86.29-1.33.1-2.03.1-1.38-.03-2.05-.1-1.3-.16-1.89-.29-1.15-.28-1.66-.46c-.52-.18-.98-.39-1.4-.63v3c.42.23.88.44,1.4.63.52.18,1.07.34,1.66.46s1.22.22,1.89.29,1.35.1,2.05.1ZM12,19c.77,0,1.55-.06,2.34-.18s1.52-.27,2.19-.46,1.23-.41,1.68-.65c.45-.24.72-.49.8-.74v-2.45c-.43.23-.91.44-1.44.63s-1.08.34-1.68.46-1.21.22-1.86.29-1.33.1-2.03.1-1.38-.03-2.05-.1-1.3-.16-1.89-.29-1.15-.28-1.66-.46c-.52-.18-.98-.39-1.4-.63v2.48c.08.25.35.49.79.73.44.23,1,.45,1.66.64s1.4.35,2.2.46,1.58.18,2.35.18Z"/>
</svg>