<?xml version="1.0" encoding="UTF-8"?>
<svg id="Calque_1" xmlns="http://www.w3.org/2000/svg" version="1.1" viewBox="0 0 24 24">
  <!-- Generator: Adobe Illustrator 29.6.1, SVG Export Plug-In . SVG Version: 2.1.1 Build 9)  -->
  <defs>
    <style>
      .st0 {
        fill: #d9d9d9;
      }
    </style>
  </defs>
  <path class="st0" d="M1.05,21v-2.8c0-.55.14-1.07.43-1.55.28-.48.68-.85,1.18-1.1.85-.43,1.81-.8,2.88-1.1,1.07-.3,2.24-.45,3.53-.45s2.46.15,3.53.45c1.07.3,2.03.67,2.88,1.1.5.25.89.62,1.18,1.1s.43,1,.43,1.55v2.8H1.05ZM3.05,19h12v-.8c0-.18-.05-.35-.14-.5s-.21-.27-.36-.35c-.6-.3-1.37-.6-2.31-.9-.94-.3-2-.45-3.19-.45s-2.25.15-3.19.45c-.94.3-1.71.6-2.31.9-.15.08-.27.2-.36.35-.09.15-.14.32-.14.5v.8ZM9.05,13c-1.1,0-2.04-.39-2.83-1.18-.78-.78-1.18-1.73-1.18-2.83h-.25c-.15,0-.27-.05-.36-.14s-.14-.21-.14-.36.05-.27.14-.36.21-.14.36-.14h.25c0-.75.18-1.43.55-2.03s.85-1.08,1.45-1.43v.95c0,.15.05.27.14.36s.21.14.36.14.27-.05.36-.14.14-.21.14-.36v-1.35c.15-.05.31-.09.48-.11s.34-.04.53-.04.36.01.53.04.33.06.48.11v1.35c0,.15.05.27.14.36s.21.14.36.14.27-.05.36-.14.14-.21.14-.36v-.95c.6.35,1.08.83,1.45,1.43.37.6.55,1.28.55,2.03h.25c.15,0,.27.05.36.14s.14.21.14.36-.05.27-.14.36-.21.14-.36.14h-.25c0,1.1-.39,2.04-1.18,2.83-.78.78-1.73,1.18-2.83,1.18ZM9.05,11c.55,0,1.02-.2,1.41-.59s.59-.86.59-1.41h-4c0,.55.2,1.02.59,1.41s.86.59,1.41.59ZM16.55,15l-.15-.75c-.1-.03-.2-.07-.29-.11s-.18-.1-.26-.19l-.7.25-.5-.9.55-.5v-.6l-.55-.5.5-.9.7.25c.07-.07.15-.13.25-.18s.2-.09.3-.13l.15-.75h1l.15.75c.1.03.2.08.3.13s.18.11.25.18l.7-.25.5.9-.55.5v.6l.55.5-.5.9-.7-.25c-.08.08-.17.15-.26.19s-.19.08-.29.11l-.15.75h-1ZM17.05,13.25c.2,0,.38-.08.53-.23s.23-.33.23-.53-.08-.38-.23-.53-.33-.23-.53-.23-.38.08-.53.23-.23.33-.23.53.08.38.23.53.33.23.53.23ZM18.85,10l-.2-1.05c-.15-.05-.29-.11-.41-.19s-.24-.16-.34-.26l-1.05.35-.7-1.2.85-.75c-.03-.08-.05-.15-.05-.2v-.4c0-.05.02-.12.05-.2l-.85-.75.7-1.2,1.05.35c.1-.1.21-.19.34-.26s.26-.14.41-.19l.2-1.05h1.4l.2,1.05c.15.05.29.11.41.19s.24.16.34.26l1.05-.35.7,1.2-.85.75c.03.08.05.15.05.2v.4c0,.05-.02.12-.05.2l.85.75-.7,1.2-1.05-.35c-.1.1-.21.19-.34.26s-.26.14-.41.19l-.2,1.05h-1.4ZM19.55,7.75c.35,0,.65-.12.89-.36s.36-.54.36-.89-.12-.65-.36-.89-.54-.36-.89-.36-.65.12-.89.36-.36.54-.36.89.12.65.36.89.54.36.89.36Z"/>
</svg>