<?xml version="1.0" encoding="UTF-8"?>
<svg id="Calque_1" xmlns="http://www.w3.org/2000/svg" version="1.1" viewBox="0 0 24 24">
  <!-- Generator: Adobe Illustrator 29.6.1, SVG Export Plug-In . SVG Version: 2.1.1 Build 9)  -->
  <defs>
    <style>
      .st0 {
        fill: #d9d9d9;
      }
    </style>
  </defs>
  <path class="st0" d="M5.45,16c-.7,0-1.33-.23-1.89-.68-.56-.45-.91-1.03-1.06-1.73l-.73-3.35-1.1.08-.18-2c1.3-.12,2.41-.2,3.34-.25s1.75-.08,2.49-.08c1.08,0,1.96.05,2.63.15s1.27.28,1.8.53c.23.12.45.2.66.25s.4.08.59.08.36-.03.54-.08.38-.13.61-.23c.55-.25,1.18-.43,1.9-.54s1.67-.16,2.85-.16c.77,0,1.62.03,2.55.08s1.95.13,3.05.23l-.18,1.98-1.08-.08-.75,3.43c-.15.7-.5,1.27-1.05,1.71s-1.18.66-1.88.66h-2.23c-.7,0-1.32-.21-1.85-.64s-.88-.97-1.05-1.64l-.68-2.68h-1.53l-.68,2.68c-.18.68-.54,1.23-1.08,1.65s-1.14.63-1.83.63h-2.23ZM4.45,13.2c.05.23.17.43.35.58s.39.23.63.23h2.23c.23,0,.44-.07.63-.21s.3-.32.35-.54l.78-3.03c-.45-.08-.96-.14-1.53-.16s-1.08-.04-1.55-.04c-.38,0-.8,0-1.24.01s-.85.03-1.24.06l.6,3.1ZM15.38,13.25c.05.22.17.4.35.54s.39.21.63.21h2.23c.23,0,.44-.08.63-.23s.3-.34.35-.58l.65-3.13c-.33-.02-.72-.03-1.15-.04s-.82-.01-1.15-.01c-.5,0-1.05.01-1.66.04s-1.15.08-1.64.16l.78,3.03Z"/>
</svg>