<?xml version="1.0" encoding="UTF-8"?>
<svg id="Calque_1" xmlns="http://www.w3.org/2000/svg" version="1.1" viewBox="0 0 24 24">
  <!-- Generator: Adobe Illustrator 29.6.1, SVG Export Plug-In . SVG Version: 2.1.1 Build 9)  -->
  <defs>
    <style>
      .st0 {
        fill: #333;
      }
    </style>
  </defs>
  <path class="st0" d="M16,10v-3.15,3.15ZM4.35,20.7c-.33.13-.64.1-.93-.11-.28-.21-.43-.49-.43-.84V5.75c0-.22.06-.41.19-.58s.3-.29.51-.38l5.3-1.8,6,2.1,4.65-1.8c.33-.13.64-.1.93.11s.43.49.43.84v8.43c-.25-.38-.55-.73-.89-1.05s-.71-.59-1.11-.83v-5.1l-3,1.15v3.15c-.35,0-.69.03-1.03.09s-.66.15-.98.26v-3.5l-4-1.4v13.08l-5.65,2.18ZM5,18.3l3-1.15V5.45l-3,1v11.85ZM16,18c.57,0,1.04-.17,1.41-.5.38-.33.57-.83.59-1.5.02-.57-.17-1.04-.56-1.43s-.87-.58-1.44-.58-1.04.19-1.43.58-.58.86-.58,1.43.19,1.04.58,1.43c.38.38.86.58,1.43.58ZM16,20c-1.1,0-2.04-.39-2.83-1.18-.78-.78-1.18-1.73-1.18-2.83s.39-2.04,1.18-2.83c.78-.78,1.73-1.18,2.83-1.18s2.04.39,2.83,1.18,1.18,1.73,1.18,2.83c0,.38-.05.75-.14,1.09s-.23.66-.41.96l2.55,2.55-1.4,1.4-2.55-2.55c-.3.18-.62.32-.96.41s-.7.14-1.09.14ZM8,5.45v11.7V5.45Z"/>
</svg>