<?xml version="1.0" encoding="UTF-8"?>
<svg id="Calque_1" xmlns="http://www.w3.org/2000/svg" version="1.1" viewBox="0 0 24 24">
  <!-- Generator: Adobe Illustrator 29.7.1, SVG Export Plug-In . SVG Version: 2.1.1 Build 8)  -->
  <defs>
    <style>
      .st0 {
        fill: #fdfdfd;
      }
    </style>
  </defs>
  <path class="st0" d="M12.5,13.67v-3.68h2.5l-1-1h-1.5v-4c0-.28.1-.52.29-.71.19-.19.43-.29.71-.29h2.43c.18,0,.35.05.51.14s.28.22.36.39l1.95,3.48h-1.45l-1-2h-2.3v1h1.7l1,2h2.6l1.48,2.58c-.43-.18-.88-.33-1.35-.43s-.94-.15-1.43-.15c-1.12,0-2.15.24-3.11.73s-1.75,1.13-2.39,1.95ZM10.5,20h-2.43c-.18,0-.35-.05-.51-.14s-.28-.22-.36-.39l-1.95-3.48h1.45l1,2h2.3v-1h-1.7l-1-2h-2.6l-1.43-2.5c-.03-.08-.06-.17-.09-.25s-.04-.17-.04-.25c0-.07.04-.23.13-.5l1.43-2.5h2.6l1-2h1.7v-1h-2.3l-1,2h-1.45l1.95-3.48c.08-.17.2-.3.36-.39s.33-.14.51-.14h2.43c.28,0,.52.1.71.29s.29.43.29.71v4h-1.5l-1,1h2.5v3h-2.2l-1-2h-2.3l-1,1h2.7l1,2h2.8v1.4c-.17.4-.29.82-.38,1.25s-.13.88-.13,1.35c0,.28.01.57.04.85s.08.57.16.85c-.08.08-.19.15-.31.21s-.25.09-.39.09ZM18,21l3-3-.7-.7-1.8,1.8v-4.1h-1v4.1l-1.8-1.8-.7.7,3,3ZM18,23c-1.38,0-2.56-.49-3.54-1.46s-1.46-2.15-1.46-3.54.49-2.56,1.46-3.54,2.15-1.46,3.54-1.46,2.56.49,3.54,1.46,1.46,2.15,1.46,3.54-.49,2.56-1.46,3.54-2.15,1.46-3.54,1.46Z"/>
</svg>