<?xml version="1.0" encoding="UTF-8"?>
<svg id="Calque_1" xmlns="http://www.w3.org/2000/svg" version="1.1" viewBox="0 0 24 24">
  <!-- Generator: Adobe Illustrator 29.7.1, SVG Export Plug-In . SVG Version: 2.1.1 Build 8)  -->
  <defs>
    <style>
      .st0 {
        fill: #fdfdfd;
      }
    </style>
  </defs>
  <path class="st0" d="M8.08,20c-.18,0-.35-.05-.51-.14s-.28-.22-.36-.39l-1.95-3.48h1.45l1,2h2.3v-1h-1.7l-1-2h-2.6l-1.43-2.5c-.03-.08-.06-.17-.09-.25s-.04-.17-.04-.25c0-.07.04-.23.13-.5l1.43-2.5h2.6l1-2h1.7v-1h-2.3l-1,2h-1.45l1.95-3.48c.08-.17.2-.3.36-.39s.33-.14.51-.14h2.43c.28,0,.52.1.71.29s.29.43.29.71v4h-1.5l-1,1h2.5v3h-2.2l-1-2h-2.3l-1,1h2.7l1,2h2.8v5c0,.28-.1.52-.29.71s-.43.29-.71.29h-2.43ZM13.5,20c-.28,0-.52-.1-.71-.29-.19-.19-.29-.43-.29-.71v-5h2.8l1-2h2.7l-1-1h-2.3l-1,2h-2.2v-3h2.5l-1-1h-1.5v-4c0-.28.1-.52.29-.71.19-.19.43-.29.71-.29h2.43c.18,0,.35.05.51.14s.28.22.36.39l1.95,3.48h-1.45l-1-2h-2.3v1h1.7l1,2h2.6l1.43,2.5c.03.08.06.17.09.25s.04.17.04.25c0,.07-.04.23-.13.5l-1.43,2.5h-2.6l-1,2h-1.7v1h2.3l1-2h1.45l-1.95,3.48c-.08.17-.2.3-.36.39s-.33.14-.51.14h-2.43Z"/>
</svg>