<?xml version="1.0" encoding="UTF-8"?>
<svg id="Calque_1" xmlns="http://www.w3.org/2000/svg" version="1.1" viewBox="0 0 24 24">
  <!-- Generator: Adobe Illustrator 29.6.1, SVG Export Plug-In . SVG Version: 2.1.1 Build 9)  -->
  <defs>
    <style>
      .st0 {
        fill: #d9d9d9;
      }
    </style>
  </defs>
  <path class="st0" d="M12,22.2c-.77,0-1.73-.12-2.89-.35s-2-.48-2.51-.73c-.18-.08-.33-.21-.44-.38-.11-.17-.16-.35-.16-.55v-1h-1c-.28,0-.52-.1-.71-.29s-.29-.43-.29-.71v-1.5c0-.28.1-.52.29-.71s.43-.29.71-.29h1v-2h-1c-.28,0-.52-.1-.71-.29s-.29-.43-.29-.71v-1.5c0-.28.1-.52.29-.71s.43-.29.71-.29h1v-2h-1c-.28,0-.52-.1-.71-.29s-.29-.43-.29-.71v-1.5c0-.28.1-.52.29-.71s.43-.29.71-.29h1v-1.5c0-.37.15-.64.45-.83s.62-.21.95-.08c.02,0,.48.15,1.38.45s1.98.45,3.23.45,2.33-.15,3.23-.45,1.36-.45,1.38-.45c.33-.13.65-.1.95.09s.45.46.45.81v1.5h1c.28,0,.52.1.71.29s.29.43.29.71v1.5c0,.28-.1.52-.29.71s-.43.29-.71.29h-1v2h1c.28,0,.52.1.71.29s.29.43.29.71v1.5c0,.28-.1.52-.29.71s-.43.29-.71.29h-1v2h1c.28,0,.52.1.71.29s.29.43.29.71v1.5c0,.28-.1.52-.29.71s-.43.29-.71.29h-1v1c0,.2-.05.38-.16.55-.11.17-.25.29-.44.38-.52.25-1.35.49-2.51.73s-2.12.35-2.89.35ZM12,8.85c.63,0,1.3-.06,2.01-.18s1.37-.28,1.99-.5v-3.58c-.63.18-1.3.33-1.99.44s-1.36.16-2.01.16-1.3-.05-1.99-.16-1.36-.25-2.01-.44v3.58c.6.22,1.26.38,1.98.5s1.39.18,2.03.18ZM12,14.55c.62,0,1.28-.06,1.99-.18s1.38-.29,2.01-.53v-3.6c-.73.2-1.43.35-2.09.45s-1.3.15-1.91.15c-.65,0-1.32-.05-2-.15s-1.35-.25-2-.45v3.6c.63.23,1.3.41,2.01.53s1.37.18,1.99.18ZM12,20.2c.63,0,1.3-.06,2.01-.18s1.37-.28,1.99-.5v-3.58c-.63.18-1.3.33-1.99.44s-1.36.16-2.01.16-1.3-.05-1.99-.16-1.36-.25-2.01-.44v3.58c.6.22,1.26.38,1.98.5s1.39.18,2.03.18Z"/>
</svg>