<?xml version="1.0" encoding="UTF-8"?>
<svg id="Calque_1" xmlns="http://www.w3.org/2000/svg" version="1.1" viewBox="0 0 24 24">
  <!-- Generator: Adobe Illustrator 29.6.1, SVG Export Plug-In . SVG Version: 2.1.1 Build 9)  -->
  <defs>
    <style>
      .st0 {
        fill: #333;
      }
    </style>
  </defs>
  <path class="st0" d="M9,21v-5c-1.03-.08-2.05-.2-3.04-.35-.99-.15-1.98-.37-2.96-.65l.5-2c1.38.38,2.78.65,4.2.79,1.42.14,2.85.21,4.3.21s2.86-.07,4.28-.21,2.83-.4,4.23-.79l.5,2c-1,.28-2,.5-2.99.65s-2,.27-3.01.35v5h-6ZM12,13c-.57,0-1.04-.19-1.43-.58s-.58-.86-.58-1.43.19-1.02.58-1.41.86-.59,1.43-.59,1.02.2,1.41.59.59.86.59,1.41-.2,1.04-.59,1.43-.86.58-1.41.58ZM4.5,10c-.43,0-.79-.14-1.08-.43-.28-.28-.43-.64-.43-1.08s.14-.77.43-1.06c.28-.29.64-.44,1.08-.44s.77.15,1.06.44.44.65.44,1.06-.15.79-.44,1.08-.65.43-1.06.43ZM19.5,10c-.43,0-.79-.14-1.08-.43s-.43-.64-.43-1.08.14-.77.43-1.06.64-.44,1.08-.44.77.15,1.06.44.44.65.44,1.06-.15.79-.44,1.08-.65.43-1.06.43ZM7.25,6.25c-.43,0-.79-.14-1.08-.43-.28-.28-.43-.64-.43-1.08s.14-.77.43-1.06c.28-.29.64-.44,1.08-.44s.77.15,1.06.44.44.65.44,1.06-.15.79-.44,1.08-.65.43-1.06.43ZM16.75,6.25c-.43,0-.79-.14-1.08-.43s-.43-.64-.43-1.08.14-.77.43-1.06.64-.44,1.08-.44.77.15,1.06.44.44.65.44,1.06-.15.79-.44,1.08-.65.43-1.06.43ZM12,5c-.43,0-.79-.14-1.08-.43s-.43-.64-.43-1.08.14-.77.43-1.06.64-.44,1.08-.44.77.15,1.06.44c.29.29.44.65.44,1.06s-.15.79-.44,1.08c-.29.28-.65.43-1.06.43Z"/>
</svg>