<?xml version="1.0" encoding="UTF-8"?>
<svg id="Calque_1" xmlns="http://www.w3.org/2000/svg" xmlns:xlink="http://www.w3.org/1999/xlink" version="1.1" viewBox="0 0 256 256">
  <!-- Generator: Adobe Illustrator 29.6.1, SVG Export Plug-In . SVG Version: 2.1.1 Build 9)  -->
  <defs>
    <style>
      .st0 {
        fill: #fff;
      }

      .st1 {
        fill: url(#Dégradé_sans_nom);
      }

      .st2 {
        fill: #f48256;
      }
    </style>
    <linearGradient id="Dégradé_sans_nom" data-name="Dégradé sans nom" x1="12.32" y1="903.23" x2="46.58" y2="862.4" gradientTransform="translate(-12.65 4353.04) scale(4.76 -4.76)" gradientUnits="userSpaceOnUse">
      <stop offset="0" stop-color="#00bff2"/>
      <stop offset="1" stop-color="#007dc4"/>
    </linearGradient>
  </defs>
  <path class="st2" d="M114.64,9.96c1.7-.18,3.38.08,5.04.76-11.02,15.02-13,43.26-13.34,53.98h7.6c.42-13.97,3.17-38.08,11.86-49.56,10.16,10.54,16.7,33.57,18.74,49.56h7.69c-2.07-17.36-9.15-42.3-20.71-54.64,1.67-.87,3.5-1.38,5.49-1.39,3.55-.02,6.85,1.68,10.05,5.18,11.17,12.18,16.12,40.38,17.19,50.86h7.62c-.92-11.77-5.91-38.44-16.73-53.05-5.26-7.11-11.38-10.7-18.17-10.67-4.54.03-8.39,1.49-11.69,3.95-3.65-2.14-7.46-3.02-11.41-2.62-20.26,2.07-25.74,33.56-26.47,62.38h7.63c.86-33.71,7.89-53.54,19.6-54.73h.01Z"/>
  <path class="st1" d="M222.34,64.35c-.05-.95-.93-1.7-1.98-1.69l-20.26-2.91c-.18-.05-.37-.08-.58-.08-7.86-.02-36.43-.09-81-.09s-73.38.54-81.17.71c-1.22.03-2.2.89-2.26,1.99-.46,7.67-2.23,37.76-4.74,84-2.65,48.9-4.16,75.57-4.53,82.63-.05,1.01.74,1.89,1.84,2.05l80.65,12.23,79.73,12.09c.66.1,1.3-.07,1.81-.41h0l39.39-25.17c1.04-.71,1.63-1.84,1.57-3.02l-8.46-162.32h-.01Z"/>
  <g>
    <g>
      <path class="st0" d="M141.25,195.7h-2.81v-.98h6.72v.98h-2.79v7.71h-1.12v-7.71h0Z"/>
      <path class="st0" d="M149.71,203.4l-2.33-7.06v7.06h-1.12v-8.69h1.56l2.46,7.41,2.47-7.41h1.55v8.69h-1.11v-7.06l-2.33,7.06h-1.15Z"/>
    </g>
    <g>
      <path class="st0" d="M95.32,97.75v93.66l21.2,6.73v-78.54c0-3.7,1.65-6.16,4.3-5.32,3.46.96,4.13,4.37,4.13,8.03v31.36c13.19,6.39,23.59,0,23.59-16.86s-6.09-24.9-24.02-31.07c-7.06-2.36-20.17-6.34-29.2-8"/>
      <path class="st0" d="M120.56,184.44l34.06-12.13c3.85-1.42,4.44-3.37,1.32-4.39-3.17-1.03-8.82-.73-12.72.66l-22.67,8v-12.75l1.3-.43s6.56-2.33,15.79-3.32c9.21-1.01,20.51.13,29.38,3.48,10,3.17,11.12,7.81,8.6,11.04-2.57,3.19-8.79,5.5-8.79,5.5l-46.28,16.63v-12.26h0v-.03Z"/>
      <path class="st0" d="M56.47,183.15c-10.26-2.86-11.97-8.9-7.29-12.38,4.31-3.2,11.67-5.59,11.67-5.59l30.38-10.83v12.33l-21.84,7.83c-3.87,1.38-4.44,3.33-1.33,4.36,3.17,1.06,8.8.77,12.67-.66l10.5-3.79v11.01c-.68.12-1.43.23-2.12.35-10.47,1.75-21.62,1.04-32.64-2.61"/>
    </g>
  </g>
</svg>