<?xml version="1.0" encoding="UTF-8"?>
<svg id="Calque_1" xmlns="http://www.w3.org/2000/svg" version="1.1" viewBox="0 0 24 24">
  <!-- Generator: Adobe Illustrator 29.6.1, SVG Export Plug-In . SVG Version: 2.1.1 Build 9)  -->
  <defs>
    <style>
      .st0 {
        fill: #333;
      }
    </style>
  </defs>
  <path class="st0" d="M5.65,10.02l1.95.83c.23-.47.48-.92.73-1.35s.53-.87.83-1.3l-1.4-.28-2.1,2.1ZM9.2,12.1l2.85,2.83c.7-.27,1.45-.68,2.25-1.23s1.55-1.18,2.25-1.88c1.17-1.17,2.08-2.46,2.74-3.89s.95-2.74.86-3.94c-1.2-.08-2.52.2-3.95.86s-2.73,1.57-3.9,2.74c-.7.7-1.33,1.45-1.88,2.25s-.96,1.55-1.23,2.25ZM13.65,10.47c-.38-.38-.58-.85-.58-1.41s.19-1.03.58-1.41.86-.58,1.43-.58,1.04.19,1.43.58.58.85.58,1.41-.19,1.03-.58,1.41-.86.58-1.43.58-1.04-.19-1.43-.58ZM14.13,18.5l2.1-2.1-.28-1.4c-.43.3-.87.57-1.3.81s-.88.48-1.35.71l.83,1.98ZM21.95,2.17c.32,2.02.12,3.98-.59,5.89s-1.93,3.73-3.66,5.46l.5,2.48c.07.33.05.66-.05.98s-.27.59-.5.83l-4.2,4.2-2.1-4.93-4.28-4.28-4.93-2.1,4.18-4.2c.23-.23.51-.4.84-.5s.65-.12.99-.05l2.48.5c1.73-1.73,3.55-2.96,5.45-3.68s3.86-.92,5.88-.6ZM3.93,15.97c.58-.58,1.3-.88,2.14-.89.84,0,1.55.28,2.14.86s.87,1.3.86,2.14c0,.84-.3,1.55-.89,2.14-.42.42-1.11.78-2.09,1.08s-2.32.57-4.04.8c.23-1.72.5-3.06.8-4.04s.66-1.67,1.08-2.09ZM5.35,17.37c-.17.17-.33.47-.5.91s-.28.89-.35,1.34c.45-.07.9-.18,1.34-.34s.75-.32.91-.49c.2-.2.31-.44.33-.73s-.08-.53-.28-.73-.44-.3-.73-.29-.53.11-.73.31Z"/>
</svg>