<?xml version="1.0" encoding="UTF-8"?>
<svg id="Calque_1" xmlns="http://www.w3.org/2000/svg" version="1.1" viewBox="0 0 24 24">
  <!-- Generator: Adobe Illustrator 29.6.1, SVG Export Plug-In . SVG Version: 2.1.1 Build 9)  -->
  <defs>
    <style>
      .st0 {
        fill: #d9d9d9;
      }
    </style>
  </defs>
  <path class="st0" d="M16,23c-.28,0-.52-.1-.71-.29s-.29-.43-.29-.71.1-.52.29-.71.43-.29.71-.29h3v-1h-3c-.28,0-.52-.1-.71-.29s-.29-.43-.29-.71.1-.52.29-.71.43-.29.71-.29h3v-1h-3c-.28,0-.52-.1-.71-.29s-.29-.43-.29-.71.1-.52.29-.71.43-.29.71-.29h3v-1h-3c-.28,0-.52-.1-.71-.29s-.29-.43-.29-.71.1-.52.29-.71.43-.29.71-.29h3v-1h-3c-.28,0-.52-.1-.71-.29s-.29-.43-.29-.71.1-.52.29-.71.43-.29.71-.29h3v-1h-3c-.28,0-.52-.1-.71-.29s-.29-.43-.29-.71.1-.52.29-.71.43-.29.71-.29h4c.55,0,1.02.2,1.41.59s.59.86.59,1.41v13c0,.55-.2,1.02-.59,1.41-.39.39-.86.59-1.41.59h-4ZM8,15c1.1,0,2.04-.54,2.83-1.63s1.18-2.38,1.18-3.88-.39-2.79-1.18-3.88-1.73-1.63-2.83-1.63-2.04.54-2.83,1.63-1.18,2.38-1.18,3.88.39,2.79,1.18,3.88,1.73,1.63,2.83,1.63ZM8,23c-.8,0-1.46-.3-1.98-.89-.52-.59-.72-1.29-.6-2.09l.4-3.53c-1.13-.55-2.05-1.45-2.76-2.71-.71-1.26-1.06-2.69-1.06-4.29,0-2.08.58-3.85,1.75-5.31,1.17-1.46,2.58-2.19,4.25-2.19s3.08.73,4.25,2.19c1.17,1.46,1.75,3.23,1.75,5.31,0,1.6-.35,3.03-1.06,4.29-.71,1.26-1.63,2.16-2.76,2.71l.4,3.53c.12.8-.08,1.5-.6,2.09-.52.59-1.18.89-1.98.89Z"/>
</svg>