<?xml version="1.0" encoding="UTF-8"?>
<svg id="Calque_1" xmlns="http://www.w3.org/2000/svg" version="1.1" viewBox="0 0 24 24">
  <!-- Generator: Adobe Illustrator 29.6.1, SVG Export Plug-In . SVG Version: 2.1.1 Build 9)  -->
  <defs>
    <style>
      .st0 {
        fill: #fff;
      }
    </style>
  </defs>
  <path class="st0" d="M2,22L7,8l9,9-14,5ZM5.3,18.7l7.05-2.5-4.55-4.55-2.5,7.05ZM14.55,12.55l-1.05-1.05,5.6-5.6c.53-.53,1.18-.8,1.93-.8s1.39.27,1.93.8l.6.6-1.05,1.05-.6-.6c-.23-.23-.53-.35-.88-.35s-.64.12-.88.35l-5.6,5.6ZM10.55,8.55l-1.05-1.05.6-.6c.23-.23.35-.52.35-.85s-.12-.62-.35-.85l-.65-.65,1.05-1.05.65.65c.53.53.8,1.17.8,1.9s-.27,1.37-.8,1.9l-.6.6ZM12.55,10.55l-1.05-1.05,3.6-3.6c.23-.23.35-.53.35-.88s-.12-.64-.35-.88l-1.6-1.6,1.05-1.05,1.6,1.6c.53.53.8,1.18.8,1.93s-.27,1.39-.8,1.93l-3.6,3.6ZM16.55,14.55l-1.05-1.05,1.6-1.6c.53-.53,1.18-.8,1.93-.8s1.39.27,1.93.8l1.6,1.6-1.05,1.05-1.6-1.6c-.23-.23-.53-.35-.88-.35s-.64.12-.88.35l-1.6,1.6Z"/>
</svg>