<?xml version="1.0" encoding="UTF-8"?>
<svg id="Calque_1" xmlns="http://www.w3.org/2000/svg" version="1.1" viewBox="0 0 24 24">
  <!-- Generator: Adobe Illustrator 29.8.0, SVG Export Plug-In . SVG Version: 2.1.1 Build 160)  -->
  <defs>
    <style>
      .st0 {
        fill: #fdfdfd;
      }
    </style>
  </defs>
  <path class="st0" d="M6.26,19.09l2.23-.91c-.19-.57-.36-1.14-.51-1.73-.15-.59-.26-1.18-.34-1.77l-1.24.84s-.08.07-.1.11c-.02.04-.03.09-.03.14,0,0,0,3.32,0,3.32ZM10,18h4c.3-.74.54-1.58.73-2.54.18-.96.28-1.95.28-2.97,0-1.58-.25-3.06-.76-4.43-.51-1.37-1.25-2.55-2.24-3.55-.99.99-1.74,2.17-2.24,3.55-.51,1.37-.76,2.85-.76,4.43,0,1.02.09,2.01.28,2.97.18.96.43,1.81.73,2.54ZM12,12.75c-.49,0-.9-.17-1.24-.51-.34-.34-.51-.75-.51-1.24s.17-.9.51-1.24c.34-.34.75-.51,1.24-.51s.9.17,1.24.51c.34.34.51.75.51,1.24s-.17.9-.51,1.24c-.34.34-.75.51-1.24.51ZM17.74,19.09v-3.31c0-.05-.01-.1-.03-.14-.02-.05-.06-.08-.1-.12l-1.24-.84c-.08.6-.2,1.22-.36,1.88-.16.65-.33,1.2-.49,1.64,0,0,2.23.9,2.23.9ZM12,2.58c1.52,1.21,2.64,2.67,3.39,4.36.74,1.69,1.11,3.62,1.11,5.79,0,.04,0,.08,0,.12,0,.04,0,.08,0,.13l1.92,1.28c.26.16.46.38.6.65.15.27.22.56.22.86v5.52l-4.48-1.8h-5.54l-4.47,1.8v-5.53c0-.3.07-.59.21-.86.14-.27.34-.49.6-.65l1.93-1.28v-.24c0-2.17.37-4.1,1.11-5.79.74-1.69,1.87-3.15,3.39-4.36Z"/>
</svg>