<?xml version="1.0" encoding="UTF-8"?>
<svg id="Calque_1" xmlns="http://www.w3.org/2000/svg" version="1.1" viewBox="0 0 24 24">
  <!-- Generator: Adobe Illustrator 29.6.1, SVG Export Plug-In . SVG Version: 2.1.1 Build 9)  -->
  <defs>
    <style>
      .st0 {
        fill: #fff;
      }
    </style>
  </defs>
  <path class="st0" d="M9,22v-13.23c-1.52-.4-2.73-1.24-3.64-2.51s-1.36-2.7-1.36-4.26h2c0,1.38.45,2.56,1.34,3.54s2.03,1.46,3.41,1.46h2.5c.5,0,.97.09,1.4.28s.83.45,1.18.8l4.53,4.53-1.4,1.4-3.95-3.95v11.95h-2v-6h-2v6h-2ZM12,6c-.55,0-1.02-.2-1.41-.59s-.59-.86-.59-1.41.2-1.02.59-1.41.86-.59,1.41-.59,1.02.2,1.41.59.59.86.59,1.41-.2,1.02-.59,1.41-.86.59-1.41.59Z"/>
</svg>