<?xml version="1.0" encoding="UTF-8"?>
<svg id="Calque_1" xmlns="http://www.w3.org/2000/svg" version="1.1" viewBox="0 0 24 24">
  <!-- Generator: Adobe Illustrator 29.6.1, SVG Export Plug-In . SVG Version: 2.1.1 Build 9)  -->
  <defs>
    <style>
      .st0 {
        fill: #d9d9d9;
      }
    </style>
  </defs>
  <path class="st0" d="M12,21l-1.45-1.3c-1.68-1.52-3.08-2.83-4.18-3.93s-1.98-2.09-2.63-2.96-1.1-1.68-1.36-2.41-.39-1.48-.39-2.25c0-1.57.53-2.88,1.58-3.93s2.36-1.58,3.93-1.58c.87,0,1.69.18,2.48.55s1.46.88,2.03,1.55c.57-.67,1.24-1.18,2.03-1.55s1.61-.55,2.48-.55c1.57,0,2.88.53,3.93,1.58s1.58,2.36,1.58,3.93c0,.77-.13,1.52-.39,2.25s-.71,1.54-1.36,2.41-1.53,1.86-2.63,2.96-2.49,2.41-4.18,3.93l-1.45,1.3ZM12,18.3c1.6-1.43,2.92-2.66,3.95-3.69s1.85-1.92,2.45-2.68c.6-.76,1.02-1.43,1.25-2.03s.35-1.18.35-1.76c0-1-.33-1.83-1-2.5s-1.5-1-2.5-1c-.78,0-1.51.22-2.18.66s-1.13,1-1.38,1.69h-1.9c-.25-.68-.71-1.25-1.38-1.69s-1.39-.66-2.18-.66c-1,0-1.83.33-2.5,1s-1,1.5-1,2.5c0,.58.12,1.17.35,1.76s.65,1.27,1.25,2.03c.6.76,1.42,1.65,2.45,2.68s2.35,2.25,3.95,3.69Z"/>
</svg>