<?xml version="1.0" encoding="UTF-8"?>
<svg id="Calque_1" xmlns="http://www.w3.org/2000/svg" version="1.1" viewBox="0 0 24 24">
  <!-- Generator: Adobe Illustrator 29.6.1, SVG Export Plug-In . SVG Version: 2.1.1 Build 9)  -->
  <defs>
    <style>
      .st0 {
        fill: #508fe6;
      }
    </style>
  </defs>
  <path class="st0" d="M17.95,16.17l-2.85-2.83,1.43-1.4,1.43,1.4,3.53-3.53,1.43,1.4-4.95,4.95ZM11,21l-3.18-2.85c-1.2-1.08-2.23-2.05-3.09-2.9s-1.57-1.65-2.13-2.4-.97-1.48-1.23-2.18c-.26-.7-.39-1.43-.39-2.2,0-1.57.53-2.87,1.58-3.91s2.36-1.56,3.93-1.56c.87,0,1.69.18,2.48.55s1.46.88,2.03,1.55c.57-.67,1.24-1.18,2.03-1.55.78-.37,1.61-.55,2.48-.55,1.35,0,2.48.38,3.4,1.14s1.54,1.71,1.88,2.86h-2.13c-.3-.67-.74-1.17-1.33-1.5s-1.19-.5-1.83-.5c-.85,0-1.58.23-2.2.69-.62.46-1.19,1.06-1.73,1.81h-1.15c-.52-.75-1.1-1.35-1.76-1.81s-1.38-.69-2.16-.69c-.95,0-1.77.33-2.46.99s-1.04,1.49-1.04,2.49c0,.55.12,1.11.35,1.68.23.57.65,1.22,1.25,1.96s1.42,1.61,2.45,2.6c1.03.99,2.35,2.19,3.95,3.59.43-.38.94-.83,1.53-1.33.58-.5,1.05-.92,1.4-1.25l.23.23.49.49.49.49.23.23c-.37.33-.83.75-1.4,1.24s-1.07.93-1.5,1.31l-1.45,1.3Z"/>
</svg>