<?xml version="1.0" encoding="UTF-8"?>
<svg id="Calque_1" xmlns="http://www.w3.org/2000/svg" version="1.1" viewBox="0 0 24 24">
  <!-- Generator: Adobe Illustrator 29.6.1, SVG Export Plug-In . SVG Version: 2.1.1 Build 9)  -->
  <defs>
    <style>
      .st0 {
        fill: #333;
      }
    </style>
  </defs>
  <path class="st0" d="M5.85,12l-.3-1.5c-.2-.08-.39-.17-.56-.26s-.35-.2-.54-.34l-1.45.45-1-1.7,1.15-1c-.03-.22-.05-.43-.05-.65s.02-.43.05-.65l-1.15-1,1-1.7,1.45.45c.18-.13.36-.25.54-.34s.36-.18.56-.26l.3-1.5h2l.3,1.5c.2.08.39.17.56.26s.35.2.54.34l1.45-.45,1,1.7-1.15,1c.03.22.05.43.05.65s-.02.43-.05.65l1.15,1-1,1.7-1.45-.45c-.18.13-.36.25-.54.34s-.36.18-.56.26l-.3,1.5h-2ZM6.85,9c.55,0,1.02-.2,1.41-.59s.59-.86.59-1.41-.2-1.02-.59-1.41-.86-.59-1.41-.59-1.02.2-1.41.59-.59.86-.59,1.41.2,1.02.59,1.41.86.59,1.41.59ZM14.8,23l-.45-2.1c-.28-.1-.55-.22-.79-.36s-.48-.3-.71-.49l-2,.65-1.4-2.4,1.6-1.4c-.03-.3-.05-.6-.05-.9s.02-.6.05-.9l-1.6-1.4,1.4-2.4,2,.65c.23-.18.47-.35.71-.49s.5-.26.79-.36l.45-2.1h2.8l.45,2.1c.28.1.55.22.79.36s.48.3.71.49l2-.65,1.4,2.4-1.6,1.4c.03.3.05.6.05.9s-.02.6-.05.9l1.6,1.4-1.4,2.4-2-.65c-.23.18-.47.35-.71.49s-.5.26-.79.36l-.45,2.1h-2.8ZM16.2,19c.83,0,1.54-.29,2.13-.88.58-.58.88-1.29.88-2.13s-.29-1.54-.88-2.13-1.29-.88-2.13-.88-1.54.29-2.13.88-.88,1.29-.88,2.13.29,1.54.88,2.13c.58.58,1.29.88,2.13.88Z"/>
</svg>