<?xml version="1.0" encoding="UTF-8"?>
<svg id="Calque_1" xmlns="http://www.w3.org/2000/svg" version="1.1" viewBox="0 0 24 24">
  <!-- Generator: Adobe Illustrator 29.7.1, SVG Export Plug-In . SVG Version: 2.1.1 Build 8)  -->
  <defs>
    <style>
      .st0 {
        fill: #fdfdfd;
      }
    </style>
  </defs>
  <path class="st0" d="M15.5,11c.42,0,.77-.15,1.06-.44s.44-.65.44-1.06-.15-.77-.44-1.06-.65-.44-1.06-.44-.77.15-1.06.44-.44.65-.44,1.06.15.77.44,1.06.65.44,1.06.44ZM8.5,11c.42,0,.77-.15,1.06-.44s.44-.65.44-1.06-.15-.77-.44-1.06-.65-.44-1.06-.44-.77.15-1.06.44-.44.65-.44,1.06.15.77.44,1.06.65.44,1.06.44ZM12,13.5c-1.13,0-2.16.32-3.09.96s-1.6,1.49-2.01,2.54h1.65c.37-.62.85-1.1,1.46-1.46s1.27-.54,1.99-.54,1.38.18,1.99.54,1.1.85,1.46,1.46h1.65c-.42-1.05-1.09-1.9-2.01-2.54s-1.95-.96-3.09-.96ZM12,22c-1.38,0-2.68-.26-3.9-.79s-2.28-1.24-3.18-2.14-1.61-1.96-2.14-3.18-.79-2.52-.79-3.9.26-2.68.79-3.9,1.24-2.28,2.14-3.18,1.96-1.61,3.18-2.14,2.52-.79,3.9-.79,2.68.26,3.9.79,2.28,1.24,3.18,2.14,1.61,1.96,2.14,3.18.79,2.52.79,3.9-.26,2.68-.79,3.9-1.24,2.28-2.14,3.18-1.96,1.61-3.18,2.14-2.52.79-3.9.79ZM12,20c2.23,0,4.13-.78,5.68-2.33s2.33-3.44,2.33-5.68-.78-4.13-2.33-5.68-3.44-2.33-5.68-2.33-4.13.78-5.68,2.33-2.33,3.44-2.33,5.68.78,4.13,2.33,5.68,3.44,2.33,5.68,2.33Z"/>
</svg>