<?xml version="1.0" encoding="UTF-8"?>
<svg id="Calque_1" xmlns="http://www.w3.org/2000/svg" version="1.1" viewBox="0 0 24 24">
  <!-- Generator: Adobe Illustrator 29.7.1, SVG Export Plug-In . SVG Version: 2.1.1 Build 8)  -->
  <defs>
    <style>
      .st0 {
        fill: #fdfdfd;
      }
    </style>
  </defs>
  <path class="st0" d="M12,22c-1.38,0-2.68-.26-3.9-.79s-2.28-1.24-3.18-2.14-1.61-1.96-2.14-3.18-.79-2.52-.79-3.9.26-2.68.79-3.9,1.24-2.28,2.14-3.18,1.96-1.61,3.18-2.14,2.52-.79,3.9-.79c2.43,0,4.56.76,6.39,2.29s2.96,3.44,3.41,5.74h-2.05c-.32-1.22-.89-2.3-1.71-3.26s-1.84-1.68-3.04-2.16v.4c0,.55-.2,1.02-.59,1.41s-.86.59-1.41.59h-2v2c0,.28-.1.52-.29.71s-.43.29-.71.29h-2v2h2v3h-1l-4.8-4.8c-.05.3-.1.6-.14.9s-.06.6-.06.9c0,2.18.77,4.06,2.3,5.63,1.53,1.57,3.43,2.36,5.7,2.38v2ZM21.1,21.5l-3.2-3.2c-.35.2-.73.37-1.13.5s-.83.2-1.28.2c-1.25,0-2.31-.44-3.19-1.31s-1.31-1.94-1.31-3.19.44-2.31,1.31-3.19,1.94-1.31,3.19-1.31,2.31.44,3.19,1.31,1.31,1.94,1.31,3.19c0,.45-.07.88-.2,1.28s-.3.78-.5,1.13l3.2,3.2-1.4,1.4ZM15.5,17c.7,0,1.29-.24,1.78-.73s.73-1.08.73-1.78-.24-1.29-.73-1.78-1.08-.73-1.78-.73-1.29.24-1.78.73-.73,1.08-.73,1.78.24,1.29.73,1.78,1.08.73,1.78.73Z"/>
</svg>