<?xml version="1.0" encoding="UTF-8"?>
<svg id="Calque_1" xmlns="http://www.w3.org/2000/svg" version="1.1" viewBox="0 0 24 24">
  <!-- Generator: Adobe Illustrator 29.8.0, SVG Export Plug-In . SVG Version: 2.1.1 Build 160)  -->
  <defs>
    <style>
      .st0 {
        fill: #fdfdfd;
      }
    </style>
  </defs>
  <path class="st0" d="M10.75,11.5l7.08-7.08c.2-.2.43-.3.7-.3s.5.1.7.3.3.43.3.7-.1.5-.3.7l-7.05,7.08s-1.43-1.4-1.43-1.4ZM13.23,13.97l6.35-6.38c.2-.2.44-.3.71-.3s.51.1.71.3.3.44.3.71-.1.51-.3.71l-6.35,6.35-1.43-1.4h.01ZM5.28,18.72c-1.52-1.52-2.28-3.34-2.28-5.48s.76-3.96,2.28-5.48l3-3,1.48,1.48c.12.12.22.24.3.36s.17.25.25.39l3.7-3.73c.2-.2.44-.3.71-.3s.51.1.71.3.3.44.3.71-.1.51-.3.71l-4.33,4.33-2.13,2.1.48.48c.77.77,1.13,1.68,1.1,2.75s-.44,1.99-1.23,2.78l-1.43-1.4c.38-.38.6-.84.64-1.36s-.13-.98-.51-1.36l-1.18-1.15c-.2-.2-.3-.44-.3-.71s.1-.51.3-.71l1.43-1.4c.2-.2.3-.44.3-.71s-.1-.51-.3-.71l-1.6,1.6c-1.13,1.13-1.7,2.49-1.7,4.06s.57,2.93,1.7,4.06c1.13,1.13,2.49,1.7,4.08,1.7s2.94-.57,4.08-1.7l5.98-6c.2-.2.44-.3.71-.3s.51.1.71.3.3.44.3.71-.1.51-.3.71l-6,5.98c-1.52,1.52-3.34,2.28-5.48,2.28s-3.96-.76-5.48-2.28h.01ZM17,23.02v-2.03c1.1,0,2.04-.39,2.83-1.18s1.18-1.73,1.18-2.83h2.03c0,1.67-.59,3.09-1.76,4.26s-2.6,1.76-4.26,1.76l-.02.02ZM.98,7c0-1.67.59-3.09,1.76-4.26S5.33.97,7,.97v2.03c-1.1,0-2.04.39-2.83,1.18s-1.18,1.73-1.18,2.83H.98Z"/>
</svg>