<?xml version="1.0" encoding="UTF-8"?>
<svg id="Calque_1" xmlns="http://www.w3.org/2000/svg" version="1.1" viewBox="0 0 24 24">
  <!-- Generator: Adobe Illustrator 29.7.1, SVG Export Plug-In . SVG Version: 2.1.1 Build 8)  -->
  <defs>
    <style>
      .st0 {
        fill: #fdfdfd;
      }
    </style>
  </defs>
  <path class="st0" d="M5.76,20.46c-.24,0-.44-.09-.62-.27s-.26-.39-.26-.62v-2.22c0-1.27.39-2.39,1.18-3.37.79-.97,1.81-1.6,3.05-1.86-.57.4-1.01.9-1.32,1.51-.31.61-.47,1.25-.47,1.94v4c0,.15.03.31.08.46.05.15.12.3.21.44,0,0-1.85,0-1.85,0ZM8.87,20.46c-.24,0-.45-.09-.62-.27-.18-.18-.26-.39-.26-.63v-4c0-1,.35-1.84,1.04-2.53.69-.69,1.54-1.03,2.54-1.03h4.01c.99,0,1.83.34,2.52,1.03.69.69,1.03,1.53,1.03,2.53v1.33c0,1-.34,1.84-1.03,2.53-.69.69-1.53,1.03-2.53,1.03h-6.68ZM12,10.21c-.93,0-1.72-.32-2.36-.97-.65-.65-.97-1.44-.97-2.36s.32-1.72.97-2.36c.65-.65,1.44-.97,2.36-.97s1.72.32,2.36.97c.65.65.97,1.44.97,2.36s-.32,1.72-.97,2.36c-.65.65-1.44.97-2.36.97Z"/>
</svg>