<?xml version="1.0" encoding="UTF-8"?>
<svg id="Calque_1" xmlns="http://www.w3.org/2000/svg" version="1.1" viewBox="0 0 24 24">
  <!-- Generator: Adobe Illustrator 29.7.1, SVG Export Plug-In . SVG Version: 2.1.1 Build 8)  -->
  <defs>
    <style>
      .st0 {
        fill: #fdfdfd;
      }
    </style>
  </defs>
  <path class="st0" d="M12,21c-1.24,0-2.41-.24-3.5-.71-1.09-.47-2.05-1.12-2.86-1.93-.81-.81-1.46-1.77-1.93-2.86-.47-1.09-.71-2.26-.71-3.5s.24-2.41.71-3.5c.47-1.09,1.12-2.05,1.93-2.86.81-.81,1.77-1.46,2.86-1.93,1.09-.47,2.26-.71,3.5-.71s2.41.24,3.5.71c1.09.47,2.05,1.12,2.86,1.93.81.81,1.46,1.76,1.93,2.86.47,1.09.71,2.26.71,3.5s-.24,2.41-.71,3.5c-.47,1.09-1.12,2.05-1.93,2.86-.81.81-1.76,1.46-2.86,1.93-1.09.47-2.26.71-3.5.71ZM12,20.01c.59-.75,1.07-1.49,1.45-2.22.38-.73.69-1.54.93-2.44h-4.76c.26.95.58,1.79.95,2.52.37.73.85,1.44,1.43,2.14ZM10.73,19.86c-.47-.55-.89-1.23-1.28-2.04-.39-.81-.67-1.63-.86-2.47h-3.83c.57,1.24,1.39,2.26,2.44,3.06,1.05.8,2.23,1.28,3.54,1.45ZM13.27,19.86c1.31-.17,2.48-.66,3.54-1.45,1.05-.8,1.86-1.82,2.44-3.06h-3.83c-.25.85-.57,1.68-.96,2.49-.39.81-.78,1.48-1.18,2.02ZM4.35,14.35h4.03c-.08-.41-.13-.81-.16-1.2-.03-.39-.05-.77-.05-1.15s.02-.76.05-1.15c.03-.39.08-.79.16-1.2h-4.03c-.11.35-.19.72-.25,1.13-.06.41-.09.81-.09,1.21s.03.81.09,1.21c.06.41.15.79.26,1.13ZM9.38,14.35h5.24c.08-.41.13-.8.16-1.18.03-.38.05-.76.05-1.17s-.02-.79-.05-1.17c-.03-.38-.08-.77-.16-1.18h-5.24c-.08.41-.13.8-.16,1.18-.03.38-.05.76-.05,1.17,0,.4.02.79.05,1.17.03.38.08.77.16,1.18ZM15.62,14.35h4.03c.11-.35.19-.72.26-1.13.06-.41.09-.81.09-1.21s-.03-.81-.09-1.21c-.06-.41-.15-.79-.26-1.13h-4.03c.08.41.13.81.16,1.2.03.39.05.77.05,1.15s-.02.76-.05,1.15c-.03.39-.08.79-.16,1.2ZM15.41,8.65h3.83c-.59-1.27-1.39-2.29-2.41-3.06-1.02-.77-2.21-1.26-3.56-1.47.47.61.89,1.32,1.26,2.11.37.79.67,1.6.88,2.42ZM9.62,8.65h4.76c-.26-.94-.59-1.79-.98-2.55-.39-.76-.86-1.46-1.4-2.12-.55.65-1.02,1.36-1.4,2.12-.39.76-.71,1.61-.98,2.55ZM4.75,8.65h3.83c.21-.83.51-1.63.88-2.42.37-.79.79-1.49,1.26-2.11-1.37.21-2.56.7-3.57,1.48-1.01.78-1.81,1.79-2.4,3.05Z"/>
</svg>