<?xml version="1.0" encoding="UTF-8"?>
<svg id="Calque_1" xmlns="http://www.w3.org/2000/svg" version="1.1" viewBox="0 0 24 24">
  <!-- Generator: Adobe Illustrator 29.7.1, SVG Export Plug-In . SVG Version: 2.1.1 Build 8)  -->
  <defs>
    <style>
      .st0 {
        fill: #fdfdfd;
      }
    </style>
  </defs>
  <path class="st0" d="M12,21c-1.24,0-2.41-.24-3.51-.71-1.09-.47-2.05-1.12-2.86-1.93-.81-.81-1.45-1.76-1.93-2.86-.47-1.09-.71-2.26-.71-3.51s.24-2.41.71-3.51c.47-1.09,1.12-2.05,1.93-2.86.81-.81,1.76-1.45,2.86-1.93,1.09-.47,2.26-.71,3.51-.71,2.33,0,4.34.77,6.03,2.31,1.69,1.54,2.66,3.44,2.9,5.7h-1.01c-.18-1.45-.7-2.75-1.57-3.9-.87-1.15-1.99-2-3.35-2.55v.44c0,.55-.2,1.02-.59,1.41s-.86.59-1.41.59h-2v2c0,.28-.1.52-.29.71s-.43.29-.71.29h-2v2h1.85v3h-.85l-4.8-4.8c-.05.3-.1.6-.14.9s-.06.6-.06.9c0,2.18.77,4.06,2.3,5.63,1.53,1.57,3.43,2.36,5.7,2.38v1ZM21.02,20.73l-3.45-3.41c-.3.21-.62.38-.97.5-.35.12-.72.18-1.1.18-.98,0-1.81-.34-2.49-1.01-.68-.68-1.01-1.5-1.01-2.49s.34-1.81,1.01-2.49c.68-.68,1.5-1.01,2.49-1.01s1.81.34,2.49,1.01c.68.68,1.01,1.5,1.01,2.49,0,.4-.06.78-.19,1.13-.13.36-.3.68-.53.98l3.45,3.41s-.71.71-.71.71ZM15.5,17c.7,0,1.29-.24,1.78-.73s.73-1.08.73-1.78-.24-1.29-.73-1.78-1.08-.73-1.78-.73-1.29.24-1.78.73-.73,1.08-.73,1.78.24,1.29.73,1.78,1.08.73,1.78.73Z"/>
</svg>