<?xml version="1.0" encoding="UTF-8"?>
<svg id="Calque_1" xmlns="http://www.w3.org/2000/svg" version="1.1" viewBox="0 0 24 24">
  <!-- Generator: Adobe Illustrator 29.7.1, SVG Export Plug-In . SVG Version: 2.1.1 Build 8)  -->
  <defs>
    <style>
      .st0 {
        fill: #fdfdfd;
      }
    </style>
  </defs>
  <path class="st0" d="M5.62,21c-.45,0-.83-.16-1.14-.47-.31-.31-.47-.7-.47-1.14v-10.77c0-.45.16-.83.47-1.14.31-.31.7-.47,1.14-.47h2.38c0-1.11.39-2.06,1.16-2.84.78-.78,1.72-1.16,2.84-1.16s2.06.39,2.84,1.16c.78.78,1.16,1.72,1.16,2.84h2.38c.45,0,.83.16,1.14.47.31.31.47.7.47,1.14v10.77c0,.45-.16.83-.47,1.14-.31.31-.7.47-1.14.47H5.62ZM5.62,20h12.77c.15,0,.3-.06.42-.19.13-.13.19-.27.19-.42v-10.77c0-.15-.06-.3-.19-.42-.13-.13-.27-.19-.42-.19H5.62c-.15,0-.3.06-.42.19-.13.13-.19.27-.19.42v10.77c0,.15.06.3.19.42.13.13.27.19.42.19ZM12,13c1.11,0,2.06-.39,2.84-1.16.78-.78,1.16-1.72,1.16-2.84h-1c0,.83-.29,1.54-.88,2.13-.58.58-1.29.88-2.13.88s-1.54-.29-2.13-.88c-.58-.58-.88-1.29-.88-2.13h-1c0,1.11.39,2.06,1.16,2.84.78.78,1.72,1.16,2.84,1.16ZM9,7h6c0-.83-.29-1.54-.88-2.13s-1.29-.88-2.13-.88-1.54.29-2.13.88-.88,1.29-.88,2.13ZM5,20V8v12Z"/>
</svg>