<?xml version="1.0" encoding="UTF-8"?>
<svg id="Calque_1" xmlns="http://www.w3.org/2000/svg" version="1.1" viewBox="0 0 24 24">
  <!-- Generator: Adobe Illustrator 29.7.1, SVG Export Plug-In . SVG Version: 2.1.1 Build 8)  -->
  <path d="M5.5,22.56v-.75c0-2.32.48-4.17,1.43-5.54.95-1.37,2.26-2.79,3.91-4.27-1.66-1.48-2.97-2.9-3.92-4.27-.95-1.37-1.43-3.21-1.43-5.54v-.75h1.5v.75c0,.26,0,.51.02.74.01.23.04.46.08.68h9.81c.04-.22.06-.45.08-.68.01-.23.02-.48.02-.74v-.75h1.5v.75c0,2.32-.48,4.17-1.43,5.54-.95,1.37-2.26,2.79-3.91,4.27,1.66,1.47,2.96,2.9,3.91,4.27.95,1.37,1.43,3.22,1.43,5.54v.75h-1.5v-.75c0-.26,0-.51-.02-.74-.01-.23-.04-.46-.08-.68H7.1c-.04.22-.06.45-.08.68-.01.23-.02.48-.02.74v.75s-1.5,0-1.5,0ZM8.59,7.5h6.8c.26-.36.49-.73.69-1.12s.37-.81.51-1.27H7.39c.15.45.32.87.51,1.25.19.39.42.76.69,1.13ZM12,11.02c.39-.35.77-.69,1.12-1.02.36-.33.7-.67,1.01-.99h-4.28c.32.33.65.66,1.02.99.36.33.74.68,1.13,1.02ZM9.87,15h4.27c-.32-.33-.65-.66-1.01-.99-.36-.33-.73-.68-1.12-1.02-.39.35-.77.69-1.12,1.02s-.7.67-1.01.99ZM7.4,18.88h9.2c-.15-.45-.32-.87-.51-1.25-.19-.39-.42-.76-.69-1.13h-6.79c-.27.37-.5.74-.7,1.12-.2.38-.37.8-.5,1.26Z"/>
</svg>