<?xml version="1.0" encoding="UTF-8"?>
<svg id="Calque_1" xmlns="http://www.w3.org/2000/svg" version="1.1" viewBox="0 0 24 24">
  <!-- Generator: Adobe Illustrator 29.7.1, SVG Export Plug-In . SVG Version: 2.1.1 Build 8)  -->
  <path d="M5.44,20.75v-1.5h5v-2.5h-.25c-1.31,0-2.43-.46-3.36-1.39-.93-.93-1.39-2.05-1.39-3.36,0-.97.27-1.85.82-2.65.55-.8,1.27-1.38,2.19-1.74.08-.62.38-1.12.88-1.48.51-.36,1.06-.49,1.66-.38l-.61-1.68.95-.35-.35-.92,1.53-.57.32.95.91-.33,2.62,7.13-.91.35.35.95-1.53.57-.32-.95-.95.37-.62-1.75c-.22.26-.5.46-.81.6-.32.14-.65.2-1,.18-.39-.02-.75-.14-1.08-.35-.33-.21-.59-.49-.79-.81-.54.27-.97.66-1.28,1.17-.32.51-.47,1.07-.47,1.69,0,.9.32,1.67.95,2.3.63.63,1.4.95,2.3.95h7.75v1.5h-5.38v2.5h6v1.5H5.44ZM13.73,9.7l1.09-.43-1.78-4.91-1.14.41s1.83,4.93,1.83,4.93ZM10.69,9.12c.32,0,.58-.11.79-.32.21-.21.32-.48.32-.79s-.11-.58-.32-.79c-.21-.21-.48-.32-.79-.32-.32,0-.58.11-.79.32-.21.21-.32.48-.32.79s.11.58.32.79c.21.21.48.32.79.32Z"/>
</svg>