<?xml version="1.0" encoding="UTF-8"?>
<svg id="Calque_1" xmlns="http://www.w3.org/2000/svg" version="1.1" viewBox="0 0 24 24">
  <!-- Generator: Adobe Illustrator 29.7.1, SVG Export Plug-In . SVG Version: 2.1.1 Build 8)  -->
  <defs>
    <style>
      .st0 {
        fill: #fdfdfd;
      }
    </style>
  </defs>
  <path class="st0" d="M2.65,20.02v-.73c.53-.13.93-.32,1.19-.56s.76-.36,1.51-.36c.83,0,1.42.17,1.75.5s.86.5,1.58.5,1.24-.17,1.58-.5.92-.5,1.75-.5,1.4.17,1.76.5.89.5,1.59.5,1.24-.17,1.58-.5.92-.5,1.75-.5c.75,0,1.25.12,1.5.36s.64.43,1.18.56v.73c-.53-.1-.96-.28-1.28-.55s-.78-.4-1.4-.4c-.7,0-1.23.17-1.58.5s-.93.5-1.75.5-1.4-.17-1.76-.5-.89-.5-1.59-.5-1.24.17-1.58.5-.92.5-1.75.5-1.42-.17-1.75-.5-.86-.5-1.58-.5c-.62,0-1.08.13-1.4.4s-.75.45-1.3.55ZM8.68,16.85c-.8,0-1.38-.17-1.74-.5s-.89-.5-1.59-.5c-.58,0-1.05.13-1.39.4s-.78.45-1.31.55v-.73c.53-.13.93-.32,1.19-.56s.76-.36,1.51-.36c.35,0,.68.05.98.14s.72.3,1.25.61l-1.6-6.05-1.58,1.95-.55-.43,6.33-7.83,9.4,3.6-.25.65-2.33-.9,2.2,8.28c.38.02.74.15,1.08.39s.69.41,1.08.51v.7c-.53-.1-.96-.28-1.28-.54s-.78-.39-1.4-.39c-.72,0-1.24.17-1.58.5s-.92.5-1.75.5-1.4-.17-1.76-.5-.89-.5-1.59-.5-1.24.17-1.58.5-.92.5-1.75.5ZM8.68,16.15c.58,0,1.03-.12,1.34-.36s.73-.43,1.26-.56l-1.1-4.03,3.88-1.03,1.58,5.95c.58-.05,1.03-.22,1.33-.5s.8-.44,1.5-.48l-2.28-8.55-5.78-2.2-3.88,4.78,1.85,6.95c.07.02.13.03.18.03h.13Z"/>
</svg>