<?xml version="1.0" encoding="UTF-8"?>
<svg id="Calque_1" xmlns="http://www.w3.org/2000/svg" version="1.1" viewBox="0 0 24 24">
  <!-- Generator: Adobe Illustrator 29.7.1, SVG Export Plug-In . SVG Version: 2.1.1 Build 8)  -->
  <defs>
    <style>
      .st0 {
        fill: #fdfdfd;
      }
    </style>
  </defs>
  <path class="st0" d="M2.95,19.9V3.65L7.3.7l4.35,2.95v3.55h9.4v12.7H2.95ZM3.65,19.2h3.3v-3.3h-3.3v3.3ZM3.65,15.2h3.3v-3.3h-3.3v3.3ZM3.65,11.2h3.3v-3.3h-3.3v3.3ZM3.65,7.2h3.3v-3.3h-3.3v3.3ZM7.65,7.2h3.3v-3.3h-3.3v3.3ZM7.65,19.2h12.7V7.9H7.65v11.3ZM14.15,11.9v-.7h3.2v.7h-3.2ZM14.15,15.9v-.7h3.2v.7h-3.2ZM10.95,11.9v-.7h.7v.7h-.7ZM10.95,15.9v-.7h.7v.7h-.7Z"/>
</svg>