<?xml version="1.0" encoding="UTF-8"?>
<svg id="Calque_1" xmlns="http://www.w3.org/2000/svg" version="1.1" viewBox="0 0 24 24">
  <!-- Generator: Adobe Illustrator 29.7.1, SVG Export Plug-In . SVG Version: 2.1.1 Build 8)  -->
  <defs>
    <style>
      .st0 {
        fill: #fdfdfd;
      }
    </style>
  </defs>
  <path class="st0" d="M6.38,19.46v-.46l1.5-1c-.8,0-1.49-.28-2.05-.84-.56-.56-.84-1.24-.84-2.04V6c0-1.06.55-1.83,1.64-2.3,1.09-.47,2.88-.7,5.36-.7s4.3.23,5.38.69,1.62,1.23,1.62,2.31v9.12c0,.8-.28,1.49-.84,2.04-.56.56-1.24.84-2.04.84l1.5,1v.46s-11.23,0-11.23,0ZM6,11h5.5v-4.46h-5.5v4.46ZM16.12,12H6h12-1.88ZM12.5,11h5.5v-4.46h-5.5v4.46ZM8.5,15.62c.31,0,.58-.11.79-.32.21-.21.32-.48.32-.79s-.11-.58-.32-.79c-.21-.21-.48-.32-.79-.32-.31,0-.58.11-.79.32-.21.21-.32.48-.32.79s.11.58.32.79c.21.21.48.32.79.32ZM15.5,15.62c.31,0,.58-.11.79-.32.21-.21.32-.48.32-.79s-.11-.58-.32-.79c-.21-.21-.48-.32-.79-.32-.31,0-.58.11-.79.32-.21.21-.32.48-.32.79s.11.58.32.79c.21.21.48.32.79.32ZM7.88,17h8.23c.52,0,.97-.18,1.33-.55s.55-.81.55-1.33v-3.12H6v3.12c0,.52.18.97.55,1.33.37.37.81.55,1.33.55ZM12,4c-1.83,0-3.22.13-4.17.38-.95.25-1.52.64-1.73,1.16h11.82c-.18-.53-.75-.91-1.7-1.16-.95-.25-2.35-.38-4.22-.38ZM12,5.54h5.92H6.1h5.9Z"/>
</svg>