<?xml version="1.0" encoding="UTF-8"?>
<svg id="Calque_1" xmlns="http://www.w3.org/2000/svg" version="1.1" viewBox="0 0 24 24">
  <!-- Generator: Adobe Illustrator 29.7.1, SVG Export Plug-In . SVG Version: 2.1.1 Build 8)  -->
  <path d="M8.15,17.35h1.7v-3.75h1v-2.6c0-.38-.13-.7-.39-.96s-.58-.39-.96-.39h-1c-.38,0-.7.13-.96.39s-.39.58-.39.96v2.6h1v3.75ZM9,8.75c.28,0,.52-.1.71-.29s.29-.43.29-.71-.1-.52-.29-.71-.43-.29-.71-.29-.52.1-.71.29-.29.43-.29.71.1.52.29.71.43.29.71.29ZM13.93,10.35h2.65l-1.33-2.13-1.33,2.13ZM15.25,15.77l1.33-2.13h-2.65l1.33,2.13ZM5.8,19.7c-.43,0-.79-.14-1.08-.43s-.43-.64-.43-1.08V5.8c0-.43.14-.79.43-1.08s.64-.43,1.08-.43h12.4c.43,0,.79.14,1.08.43s.43.64.43,1.08v12.4c0,.43-.14.79-.43,1.08s-.64.43-1.08.43H5.8ZM5.8,19h12.4c.23,0,.43-.08.58-.23s.23-.34.23-.58V5.8c0-.23-.08-.43-.23-.58s-.34-.23-.58-.23H5.8c-.23,0-.43.08-.58.23s-.23.34-.23.58v12.4c0,.23.08.43.23.58s.34.23.58.23ZM5,19V5v14Z"/>
</svg>