<?xml version="1.0" encoding="UTF-8"?>
<svg id="Calque_1" xmlns="http://www.w3.org/2000/svg" version="1.1" viewBox="0 0 24 24">
  <!-- Generator: Adobe Illustrator 29.7.1, SVG Export Plug-In . SVG Version: 2.1.1 Build 8)  -->
  <defs>
    <style>
      .st0 {
        fill: #fdfdfd;
      }
    </style>
  </defs>
  <path class="st0" d="M11.65,5.55v-3.2h.7v3.2h-.7ZM16.8,7.7l-.48-.48,2.23-2.33.53.53-2.28,2.28ZM18.45,12.35v-.7h3.2v.7h-3.2ZM11.65,21.65v-3.18h.7v3.18h-.7ZM7.25,7.67l-2.35-2.23.55-.5,2.28,2.25-.48.48ZM18.55,19.1l-2.23-2.33.48-.45,2.25,2.23-.5.55ZM2.35,12.35v-.7h3.2v.7h-3.2ZM5.43,19.1l-.48-.55,2.23-2.23.25.25.28.25-2.28,2.28ZM12.01,16.7c-1.3,0-2.41-.46-3.33-1.37-.92-.91-1.38-2.02-1.38-3.33s.46-2.41,1.37-3.33c.91-.92,2.02-1.38,3.33-1.38s2.41.46,3.33,1.37c.92.91,1.38,2.02,1.38,3.33s-.46,2.41-1.37,3.33c-.91.92-2.02,1.38-3.33,1.38ZM12,16c1.1,0,2.04-.39,2.83-1.18s1.18-1.73,1.18-2.83-.39-2.04-1.18-2.83-1.73-1.18-2.83-1.18-2.04.39-2.83,1.18-1.18,1.73-1.18,2.83.39,2.04,1.18,2.83,1.73,1.18,2.83,1.18Z"/>
</svg>