<?xml version="1.0" encoding="UTF-8"?>
<svg id="Calque_1" xmlns="http://www.w3.org/2000/svg" version="1.1" viewBox="0 0 24 24">
  <!-- Generator: Adobe Illustrator 29.7.1, SVG Export Plug-In . SVG Version: 2.1.1 Build 8)  -->
  <defs>
    <style>
      .st0 {
        fill: #fdfdfd;
      }
    </style>
  </defs>
  <path class="st0" d="M5.65,19.9V7.2h4v-3.65l2.35-2.2,2.35,2.2v7.65h4v8.7H5.65ZM6.35,19.2h3.3v-3.3h-3.3v3.3ZM6.35,15.2h3.3v-3.3h-3.3v3.3ZM6.35,11.2h3.3v-3.3h-3.3v3.3ZM10.35,19.2h3.3v-3.3h-3.3v3.3ZM10.35,15.2h3.3v-3.3h-3.3v3.3ZM10.35,11.2h3.3v-3.3h-3.3v3.3ZM10.35,7.2h3.3v-3.3h-3.3v3.3ZM14.35,19.2h3.3v-3.3h-3.3v3.3ZM14.35,15.2h3.3v-3.3h-3.3v3.3Z"/>
</svg>